<svg xmlns="http://www.w3.org/2000/svg" width="666.7" height="282.8" viewBox="0 0 666.7 282.8" fill="none">
  <g transform="translate(247.831 149.142)"><path d="M15.435356200527705 2.401055408970976Q13.720316622691293 2.401055408970976 10.11873350923483 1.8865435356200528Q7.37467018469657 -1.029023746701847 5.230870712401056 -6.088390501319261Q3.087071240105541 -11.147757255936675 1.9722955145118735 -16.893139841688654Q0.8575197889182058 -22.638522427440634 0.9432717678100264 -28.383905013192614Q1.029023746701847 -34.12928759894459 2.9155672823219 -38.58839050131926Q2.9155672823219 -38.7598944591029 4.544854881266491 -42.70448548812665Q6.174142480211082 -46.6490765171504 8.7467018469657 -52.73746701846966Q11.319261213720317 -58.82585751978892 14.5778364116095 -66.28627968337732Q17.836411609498683 -73.7467018469657 21.094986807387862 -80.94986807387863Q24.353562005277045 -88.15303430079156 27.354881266490764 -94.06992084432719Q30.356200527704488 -99.9868073878628 32.58575197889182 -103.24538258575198Q34.12928759894459 -105.64643799472296 35.4155672823219 -107.87598944591029Q36.70184696569921 -110.10554089709763 37.9023746701847 -111.99208443271768Q39.78891820580475 -115.07915567282322 41.41820580474934 -117.73746701846966Q43.047493403693935 -120.3957783641161 45.019788918205805 -122.53957783641161Q46.99208443271768 -124.68337730870712 49.39313984168866 -126.31266490765171Q51.794195250659634 -127.94195250659631 55.224274406332455 -129.1424802110818Q57.28232189973615 -128.28496042216358 58.82585751978892 -127.34168865435356Q60.36939313984169 -126.39841688654354 61.56992084432718 -125.0263852242744L62.084432717678105 -122.62532981530343Q62.42744063324538 -121.42480211081795 63.19920844327177 -120.99604221635884Q63.970976253298154 -120.56728232189974 64.48548812664907 -120.56728232189974Q66.71503957783641 -120.05277044854881 68.34432717678101 -119.45250659630608Q69.9736147757256 -118.85224274406333 71.86015831134564 -118.68073878627969Q72.54617414248021 -117.65171503957784 73.14643799472296 -116.622691292876Q73.7467018469657 -115.59366754617415 74.43271767810026 -114.73614775725594Q77.86279683377309 -109.76253298153034 80.09234828496042 -105.13192612137203Q82.32189973614776 -100.50131926121372 80.09234828496042 -95.0131926121372L80.26385224274406 -93.12664907651715Q81.12137203166228 -91.92612137203166 81.12137203166228 -90.89709762532982Q81.12137203166228 -89.86807387862797 80.77836411609499 -87.98153034300792Q80.60686015831135 -86.60949868073878 80.52110817941953 -84.9802110817942Q80.4353562005277 -83.35092348284961 80.94986807387863 -81.46437994722956L82.15039577836411 -80.09234828496042Q84.89445910290237 -78.7203166226913 87.46701846965699 -78.7203166226913Q90.89709762532982 -78.7203166226913 93.64116094986808 -80.26385224274406Q96.38522427440634 -81.80738786279683 98.78627968337732 -83.35092348284961Q100.67282321899737 -84.72295514511873 102.30211081794195 -85.58047493403694Q103.93139841688655 -86.43799472295515 105.47493403693932 -86.78100263852242Q109.07651715039579 -90.21108179419525 112.0778364116095 -92.86939313984169Q115.07915567282322 -95.52770448548813 118.3377308707124 -98.27176781002639Q124.51187335092348 -103.24538258575198 130.34300791556728 -108.99076517150397Q136.1741424802111 -114.73614775725594 139.6042216358839 -123.311345646438Q141.49076517150397 -124.51187335092348 143.89182058047493 -124.51187335092348Q146.29287598944592 -124.51187335092348 148.6939313984169 -123.56860158311346Q151.09498680738787 -122.62532981530343 153.49604221635883 -121.42480211081795Q154.01055408970976 -121.08179419525067 154.43931398416885 -120.91029023746702Q154.86807387862797 -120.73878627968338 155.3825857519789 -120.3957783641161Q155.3825857519789 -118.50923482849605 156.92612137203167 -116.96569920844327Q157.78364116094988 -116.27968337730871 158.12664907651714 -116.10817941952507Q158.46965699208442 -115.93667546174143 158.8126649076517 -115.76517150395779Q160.18469656992085 -114.90765171503958 161.12796833773086 -114.22163588390501Q162.0712401055409 -113.53562005277045 162.58575197889184 -112.33509234828496Q164.1292875989446 -107.70448548812665 167.73087071240107 -105.13192612137203Q167.3878627968338 -103.24538258575198 167.9023746701847 -101.44459102902374Q168.4168865435356 -99.64379947229551 169.10290237467018 -97.9287598944591Q169.44591029023746 -97.24274406332454 169.6174142480211 -96.64248021108179Q169.78891820580475 -96.04221635883906 170.13192612137203 -95.18469656992085L166.35883905013193 -95.52770448548813L166.87335092348286 -91.75461741424802Q167.3878627968338 -88.83905013192613 166.44459102902374 -85.23746701846966Q165.50131926121372 -81.63588390501319 164.30079155672823 -79.5778364116095Q164.6437994722955 -74.43271767810026 164.6437994722955 -71.43139841688654Q164.6437994722955 -68.43007915567283 164.30079155672823 -65.85751978891821Q163.95778364116094 -63.28496042216359 163.18601583113457 -60.96965699208444Q162.4142480211082 -58.65435356200528 161.2137203166227 -56.08179419525066Q161.89973614775727 -43.047493403693935 158.21240105540898 -32.24274406332454Q154.52506596306068 -21.437994722955146 150.23746701846966 -12.005277044854882Q149.72295514511873 -10.804749340369394 149.2084432717678 -9.775725593667547Q148.69393139841688 -8.7467018469657 148.3509234828496 -7.717678100263853Q146.46437994722956 -7.203166226912929 144.92084432717678 -6.517150395778364Q143.377308707124 -5.8311345646438 142.0052770448549 -4.9736147757255935Q140.11873350923483 -3.7730870712401057 138.23218997361477 -3.0013192612137205Q136.34564643799473 -2.2295514511873353 134.28759894459102 -2.2295514511873353Q126.05540897097626 -8.232189973614776 125.7981530343008 -22.98153034300792Q125.54089709762533 -37.73087071240106 132.0580474934037 -60.54089709762533Q133.25857519788917 -61.39841688654354 133.08707124010553 -63.11345646437995V-65.0L131.37203166226914 -65.17150395778364Q130.51451187335093 -65.17150395778364 129.82849604221636 -65.0Q129.1424802110818 -64.82849604221636 128.7994722955145 -63.45646437994723Q123.311345646438 -59.51187335092349 116.87994722955145 -55.310026385224276Q110.44854881266491 -51.108179419525065 103.58839050131925 -47.59234828496042Q96.72823218997361 -44.07651715039578 89.6108179419525 -41.761213720316626Q82.4934036939314 -39.44591029023747 75.8047493403694 -39.44591029023747Q58.65435356200528 -39.44591029023747 49.90765171503958 -56.93931398416887L48.364116094986805 -60.02638522427441L46.6490765171504 -57.28232189973615Q46.13456464379947 -56.42480211081794 44.84828496042216 -53.937994722955146Q43.562005277044854 -51.45118733509235 42.275725593667545 -48.19261213720317Q40.989445910290236 -44.934036939313984 40.04617414248021 -41.50395778364116Q39.10290237467019 -38.07387862796834 39.44591029023747 -35.50131926121372Q37.38786279683377 -33.61477572559367 35.4155672823219 -31.21372031662269Q33.443271767810025 -28.812664907651715 32.58575197889182 -25.725593667546175Q32.24274406332454 -24.868073878627968 32.41424802110818 -24.096306068601585Q32.58575197889182 -23.3245382585752 32.928759894459105 -22.467018469656992Q32.75725593667546 -21.266490765171504 32.24274406332454 -20.75197889182058Q31.728232189973614 -20.23746701846966 31.042216358839053 -19.722955145118735Q30.184696569920845 -18.86543535620053 29.327176781002642 -17.922163588390504Q28.469656992084435 -16.978891820580476 27.78364116094987 -15.778364116094988Q27.440633245382585 -14.74934036939314 27.269129287598943 -13.634564643799472Q27.097625329815305 -12.519788918205805 26.926121372031663 -11.6622691292876Q26.926121372031663 -9.775725593667547 26.41160949868074 -9.089709762532982Q24.69656992084433 -5.488126649076517 23.41029023746702 -3.1728232189973617Q22.12401055408971 -0.8575197889182058 20.923482849604223 0.3430079155672824Q19.722955145118735 1.5435356200527706 18.436675461741427 1.9722955145118735Q17.150395778364118 2.401055408970976 15.435356200527705 2.401055408970976Z" fill="#333333"/></g>
  <g transform="translate(19.438 259.029)"><path d="M9.261213720316622 1.4406332453825856Q8.232189973614775 1.4406332453825856 6.071240105540896 1.1319261213720315Q4.424802110817942 -0.6174142480211081 3.138522427440633 -3.6530343007915564Q1.8522427440633245 -6.688654353562005 1.183377308707124 -10.135883905013191Q0.5145118733509234 -13.583113456464378 0.5659630606860158 -17.030343007915565Q0.6174142480211081 -20.477572559366752 1.7493403693931397 -23.153034300791557Q1.7493403693931397 -23.25593667546174 2.7269129287598943 -25.622691292875988Q3.704485488126649 -27.989445910290236 5.248021108179419 -31.642480211081793Q6.791556728232189 -35.29551451187335 8.7467018469657 -39.77176781002638Q10.701846965699207 -44.248021108179415 12.656992084432716 -48.56992084432717Q14.612137203166226 -52.89182058047493 16.41292875989446 -56.4419525065963Q18.21372031662269 -59.992084432717675 19.55145118733509 -61.94722955145119Q20.477572559366752 -63.38786279683377 21.24934036939314 -64.72559366754618Q22.021108179419524 -66.06332453825857 22.741424802110817 -67.1952506596306Q23.87335092348285 -69.04749340369392 24.850923482849602 -70.64248021108179Q25.828496042216358 -72.23746701846966 27.01187335092348 -73.52374670184696Q28.195250659630606 -74.81002638522428 29.63588390501319 -75.78759894459102Q31.076517150395777 -76.76517150395777 33.13456464379947 -77.48548812664907Q34.369393139841684 -76.97097625329815 35.29551451187335 -76.40501319261213Q36.22163588390501 -75.83905013192611 36.9419525065963 -75.01583113456464L37.250659630606854 -73.57519788918205Q37.45646437994723 -72.85488126649076 37.91952506596306 -72.5976253298153Q38.38258575197889 -72.34036939313984 38.69129287598945 -72.34036939313984Q40.029023746701846 -72.03166226912928 41.0065963060686 -71.67150395778364Q41.98416886543535 -71.31134564643799 43.11609498680738 -71.2084432717678Q43.52770448548812 -70.5910290237467 43.88786279683377 -69.9736147757256Q44.248021108179415 -69.35620052770449 44.659630606860155 -68.84168865435356Q46.717678100263846 -65.8575197889182 48.055408970976245 -63.07915567282321Q49.39313984168865 -60.30079155672823 48.05540897097625 -57.00791556728232L48.15831134564643 -55.875989445910285Q48.67282321899736 -55.15567282321899 48.67282321899736 -54.53825857519789Q48.67282321899736 -53.92084432717678 48.46701846965699 -52.78891820580475Q48.364116094986805 -51.96569920844327 48.31266490765171 -50.98812664907651Q48.26121372031662 -50.01055408970976 48.56992084432717 -48.878627968337724L49.290237467018464 -48.05540897097625Q50.93667546174142 -47.23218997361477 52.480211081794195 -47.23218997361477Q54.53825857519789 -47.23218997361477 56.184696569920845 -48.15831134564644Q57.8311345646438 -49.0844327176781 59.27176781002638 -50.01055408970976Q60.403693931398415 -50.833773087071236 61.38126649076517 -51.34828496042216Q62.35883905013192 -51.86279683377308 63.284960422163586 -52.068601583113455Q65.44591029023746 -54.12664907651715 67.24670184696569 -55.72163588390501Q69.04749340369392 -57.31662269129287 71.00263852242743 -58.96306068601583Q74.70712401055408 -61.94722955145119 78.20580474934036 -65.39445910290237Q81.70448548812665 -68.84168865435356 83.76253298153034 -73.9868073878628Q84.89445910290237 -74.70712401055408 86.33509234828496 -74.70712401055408Q87.77572559366754 -74.70712401055408 89.21635883905013 -74.14116094986807Q90.65699208443272 -73.57519788918205 92.0976253298153 -72.85488126649076Q92.40633245382585 -72.64907651715039 92.66358839050132 -72.5461741424802Q92.92084432717678 -72.44327176781002 93.22955145118733 -72.23746701846966Q93.22955145118733 -71.10554089709763 94.15567282321899 -70.17941952506595Q94.67018469656992 -69.76781002638522 94.87598944591028 -69.66490765171503Q95.08179419525065 -69.56200527704485 95.28759894459102 -69.45910290237467Q96.1108179419525 -68.94459102902374 96.67678100263852 -68.532981530343Q97.24274406332454 -68.12137203166226 97.55145118733509 -67.40105540897098Q98.47757255936675 -64.62269129287598 100.63852242744063 -63.07915567282321Q100.43271767810026 -61.94722955145119 100.74142480211081 -60.866754617414244Q101.05013192612137 -59.7862796833773 101.4617414248021 -58.757255936675456Q101.66754617414247 -58.345646437994716 101.77044854881265 -57.985488126649074Q101.87335092348285 -57.625329815303424 102.07915567282322 -57.110817941952504L99.81530343007915 -57.31662269129287L100.12401055408971 -55.052770448548806Q100.43271767810026 -53.30343007915567 99.86675461741424 -51.14248021108179Q99.30079155672823 -48.98153034300791 98.58047493403693 -47.7467018469657Q98.7862796833773 -44.659630606860155 98.7862796833773 -42.85883905013192Q98.7862796833773 -41.05804749340369 98.58047493403694 -39.51451187335092Q98.37467018469657 -37.97097625329815 97.91160949868073 -36.58179419525065Q97.4485488126649 -35.19261213720316 96.72823218997361 -33.64907651715039Q97.13984168865434 -25.828496042216358 94.92744063324537 -19.345646437994723Q92.71503957783641 -12.862796833773086 90.14248021108179 -7.203166226912928Q89.83377308707124 -6.482849604221635 89.52506596306068 -5.865435356200527Q89.21635883905013 -5.248021108179419 89.01055408970976 -4.630606860158311Q87.87862796833772 -4.321899736147757 86.95250659630607 -3.9102902374670183Q86.0263852242744 -3.4986807387862795 85.20316622691293 -2.984168865435356Q84.0712401055409 -2.263852242744063 82.93931398416886 -1.800791556728232Q81.80738786279683 -1.337730870712401 80.57255936675462 -1.337730870712401Q75.63324538258574 -4.939313984168865 75.47889182058046 -13.788918205804748Q75.32453825857519 -22.63852242744063 79.23482849604221 -36.324538258575195Q79.9551451187335 -36.83905013192612 79.85224274406332 -37.86807387862797V-39.0L78.82321899736148 -39.10290237467018Q78.30870712401055 -39.10290237467018 77.89709762532982 -39.0Q77.48548812664907 -38.89709762532981 77.2796833773087 -38.073878627968334Q73.9868073878628 -35.70712401055409 70.12796833773086 -33.18601583113456Q66.26912928759894 -30.664907651715037 62.15303430079155 -28.555408970976252Q58.03693931398416 -26.445910290237464 53.7664907651715 -25.056728232189972Q49.49604221635884 -23.66754617414248 45.482849604221634 -23.66754617414248Q35.19261213720316 -23.66754617414248 29.944591029023744 -34.16358839050132L29.01846965699208 -36.01583113456464L27.989445910290236 -34.369393139841684Q27.680738786279683 -33.854881266490764 26.908970976253297 -32.36279683377309Q26.13720316622691 -30.870712401055407 25.36543535620053 -28.9155672823219Q24.593667546174142 -26.96042216358839 24.027704485488126 -24.902374670184695Q23.46174142480211 -22.844327176781 23.66754617414248 -21.30079155672823Q22.432717678100264 -20.1688654353562 21.24934036939314 -18.728232189973614Q20.065963060686016 -17.28759894459103 19.55145118733509 -15.435356200527703Q19.345646437994723 -14.92084432717678 19.448548812664907 -14.45778364116095Q19.55145118733509 -13.994722955145118 19.75725593667546 -13.480211081794195Q19.654353562005277 -12.759894459102902 19.345646437994723 -12.451187335092348Q19.036939313984167 -12.142480211081793 18.625329815303427 -11.83377308707124Q18.110817941952504 -11.319261213720315 17.59630606860158 -10.7532981530343Q17.08179419525066 -10.187335092348285 16.67018469656992 -9.467018469656992Q16.46437994722955 -8.849604221635884 16.361477572559366 -8.180738786279683Q16.258575197889183 -7.511873350923483 16.155672823218996 -6.997361477572559Q16.155672823218996 -5.8654353562005275 15.846965699208443 -5.453825857519789Q14.817941952506596 -3.29287598944591 14.046174142480211 -1.9036939313984167Q13.274406332453825 -0.5145118733509234 12.554089709762533 0.2058047493403694Q11.83377308707124 0.9261213720316622 11.062005277044854 1.183377308707124Q10.29023746701847 1.4406332453825856 9.261213720316622 1.4406332453825856ZM162.5857519788918 -30.870712401055407Q162.48284960422163 -29.63588390501319 162.7915567282322 -28.50395778364116Q163.10026385224273 -27.372031662269126 163.56332453825857 -26.291556728232187Q164.0263852242744 -25.21108179419525 164.43799472295512 -24.07915567282322Q164.84960422163587 -22.947229551451187 165.05540897097623 -21.815303430079155Q165.26121372031662 -20.37467018469657 165.05540897097626 -18.67678100263852Q164.84960422163587 -16.978891820580476 164.33509234828495 -15.383905013192612Q163.82058047493402 -13.788918205804748 162.99736147757255 -12.50263852242744Q162.17414248021106 -11.216358839050132 161.04221635883903 -10.598944591029023Q159.60158311345646 -8.7467018469657 157.54353562005275 -7.717678100263852Q155.48548812664905 -6.688654353562005 153.73614775725594 -5.248021108179419Q152.6042216358839 -4.527704485488126 151.21503957783642 -4.218997361477572Q149.8258575197889 -3.9102902374670183 148.3852242744063 -3.601583113456464Q147.25329815303428 -2.984168865435356 145.70976253298153 -2.3153034300791555Q144.16622691292875 -1.646437994722955 142.5197889182058 -1.0804749340369393Q140.87335092348283 -0.5145118733509234 139.22691292875987 -0.2572559366754617Q137.58047493403694 0.0 136.3456464379947 -0.10290237467018469Q133.25857519788917 1.0290237467018468 130.3258575197889 1.3891820580474934Q127.39313984168864 1.7493403693931397 123.48284960422163 0.9261213720316622Q119.77836411609498 1.4406332453825856 116.63984168865434 0.6174142480211081Q113.50131926121371 -0.20580474934036938 111.08311345646436 -2.006596306068601Q108.66490765171503 -3.8073878627968334 106.8641160949868 -6.328496042216359Q105.06332453825857 -8.849604221635884 103.93139841688654 -11.62796833773087Q103.10817941952506 -17.4934036939314 104.34300791556727 -22.278364116094984Q105.57783641160948 -27.063324538258573 107.89313984168865 -31.12796833773087Q110.2084432717678 -35.19261213720316 113.19261213720316 -38.63984168865435Q116.1767810026385 -42.08707124010554 118.9551451187335 -45.37994722955145Q119.5725593667546 -45.17414248021108 119.93271767810026 -45.43139841688654Q120.2928759894459 -45.688654353562 120.60158311345646 -46.15171503957784Q120.91029023746701 -46.61477572559367 121.27044854881265 -47.02638522427441Q121.6306068601583 -47.43799472295514 122.14511873350922 -47.540897097625326Q122.86543535620052 -49.0844327176781 124.254617414248 -49.85620052770449Q125.6437994722955 -50.62796833773087 126.46701846965698 -52.068601583113455Q127.39313984168864 -52.27440633245382 128.01055408970976 -52.68601583113456Q128.62796833773086 -53.0976253298153 129.19393139841688 -53.61213720316623Q129.7598944591029 -54.12664907651715 130.377308707124 -54.589709762532976Q130.9947229551451 -55.052770448548806 131.81794195250657 -55.25857519788918V-56.39050131926121Q133.67018469656992 -57.21372031662269 134.54485488126647 -58.29419525065963Q135.41952506596306 -59.37467018469657 136.65435356200527 -60.918205804749334Q137.58047493403694 -61.02110817941952 138.14643799472296 -61.02110817941952Q138.71240105540898 -61.02110817941952 139.84432717678098 -61.22691292875989Q140.66754617414247 -62.66754617414248 141.33641160949867 -63.38786279683377Q142.00527704485486 -64.10817941952506 143.34300791556728 -64.93139841688654Q144.5778364116095 -64.31398416886543 146.06992084432716 -64.10817941952506Q147.56200527704485 -63.90237467018469 148.69393139841688 -62.77044854881266Q148.79683377308706 -61.741424802110814 149.31134564643799 -61.1754617414248Q149.8258575197889 -60.60949868073878 150.44327176781002 -60.14643799472295Q151.06068601583112 -59.68337730870712 151.62664907651714 -59.168865435356196Q152.19261213720316 -58.65435356200528 152.39841688654352 -57.72823218997361Q152.81002638522426 -57.625329815303424 152.96437994722953 -57.83113456464379Q153.1187335092348 -58.03693931398416 153.53034300791555 -57.934036939313984Q153.83905013192611 -56.4934036939314 154.25065963060683 -56.03034300791556Q154.66226912928758 -55.56728232189973 155.07387862796833 -54.229551451187334Q154.5593667546174 -53.20052770448549 154.30211081794192 -52.12005277044855Q154.04485488126647 -51.03957783641161 153.01583113456462 -50.52506596306068Q152.91292875989444 -49.80474934036939 153.42744063324537 -49.753298153034294Q153.9419525065963 -49.701846965699204 154.04485488126647 -49.187335092348285Q154.14775725593665 -48.26121372031662 153.73614775725594 -47.84960422163588Q156.20580474934036 -43.836411609498676 158.16094986807389 -39.36015831134564Q160.11609498680738 -34.88390501319261 162.5857519788918 -30.870712401055407ZM149.7229551451187 -21.094986807387862Q150.13456464379945 -22.226912928759894 150.80343007915565 -22.947229551451187Q151.47229551451187 -23.66754617414248 151.57519788918205 -25.108179419525065Q151.06068601583112 -25.93139841688654 150.95778364116092 -26.394459102902374Q150.85488126649074 -26.857519788918204 150.85488126649074 -27.886543535620053Q148.59102902374667 -31.076517150395777 146.94459102902374 -34.729551451187334Q145.29815303430078 -38.38258575197889 143.24010554089708 -41.57255936675462Q143.03430079155672 -41.16094986807388 142.5197889182058 -40.74934036939314Q142.00527704485486 -40.3377308707124 141.38786279683376 -40.955145118733505Q141.1820580474934 -40.13192612137203 140.66754617414247 -39.77176781002639Q140.15303430079155 -39.41160949868074 139.53562005277044 -39.46306068601583Q138.91820580474933 -39.51451187335092 138.24934036939314 -39.77176781002638Q137.58047493403694 -40.029023746701846 137.065963060686 -40.440633245382585Q134.08179419525064 -38.073878627968334 131.0976253298153 -35.810026385224276Q128.11345646437994 -33.54617414248021 125.74670184696569 -30.562005277044854Q125.33509234828495 -30.356200527704484 125.23218997361477 -30.407651715039577Q125.12928759894459 -30.459102902374667 124.61477572559366 -30.253298153034297Q123.79155672823218 -28.29815303430079 122.60817941952504 -26.703166226912927Q121.42480211081792 -25.108179419525065 120.29287598944589 -23.46174142480211Q119.16094986807387 -21.815303430079155 118.33773087071239 -19.96306068601583Q117.51451187335091 -18.110817941952504 117.41160949868073 -15.641160949868073Q119.16094986807387 -14.200527704485488 121.52770448548812 -13.891820580474933Q123.89445910290236 -13.583113456464378 126.41556728232189 -13.788918205804748Q128.9366754617414 -13.994722955145118 131.35488126649074 -14.45778364116095Q133.7730870712401 -14.92084432717678 135.83113456464378 -14.92084432717678Q140.15303430079155 -15.949868073878626 143.2401055408971 -17.647757255936675Q146.32717678100263 -19.345646437994723 149.7229551451187 -21.094986807387862ZM211.6701846965699 0.20580474934036938Q210.02374670184696 0.30870712401055406 207.60554089709763 0.10290237467018468Q205.18733509234826 -0.10290237467018469 203.1292875989446 0.8232189973614775Q197.67546174142478 0.6174142480211081 192.01583113456462 -0.5145118733509235Q186.35620052770446 -1.646437994722955 181.62269129287597 -3.29287598944591Q180.59366754617412 -4.424802110817942 179.56464379947226 -5.402374670184697Q178.53562005277044 -6.379947229551451 176.7862796833773 -6.791556728232189Q174.31662269129288 -8.7467018469657 172.7730870712401 -11.576517150395777Q171.22955145118732 -14.406332453825856 170.30343007915565 -17.59630606860158Q169.377308707124 -20.78627968337731 169.06860158311343 -24.13060686015831Q168.7598944591029 -27.474934036939313 168.86279683377307 -30.562005277044854Q170.40633245382585 -35.19261213720316 173.23614775725594 -38.53693931398416Q176.06596306068602 -41.88126649076517 179.05013192612137 -45.17414248021108Q180.38786279683376 -45.79155672823219 181.05672823218995 -46.46042216358839Q181.72559366754615 -47.129287598944586 182.49736147757255 -47.6952506596306Q183.26912928759893 -48.26121372031662 184.0408970976253 -48.827176781002635Q184.8126649076517 -49.39313984168865 185.43007915567281 -50.21635883905013Q187.5910290237467 -50.73087071240105 189.18601583113457 -51.708443271767806Q190.7810026385224 -52.68601583113456 192.3245382585752 -53.7664907651715Q193.86807387862797 -54.84696569920844 195.5145118733509 -55.7730870712401Q197.16094986807386 -56.699208443271765 199.32189973614774 -57.21372031662269Q200.1451187335092 -58.13984168865435 201.27704485488124 -58.705804749340366Q202.40897097625327 -59.27176781002638 203.5923482849604 -59.8377308707124Q204.77572559366752 -60.403693931398415 205.85620052770446 -61.02110817941952Q206.9366754617414 -61.63852242744063 207.55408970976254 -62.66754617414248Q208.06860158311343 -61.844327176781 208.9947229551451 -62.101583113456456Q209.92084432717678 -62.35883905013192 210.74406332453825 -62.66754617414248Q211.25857519788917 -62.77044854881266 211.6187335092348 -62.461741424802106Q211.97889182058046 -62.15303430079155 212.28759894459102 -61.844327176781Q212.59630606860156 -61.53562005277045 212.853562005277 -61.48416886543535Q213.1108179419525 -61.43271767810026 213.31662269129288 -61.94722955145119Q213.83113456464378 -61.94722955145119 213.62532981530342 -61.43271767810026Q213.41952506596306 -60.918205804749334 213.31662269129288 -60.71240105540897Q214.13984168865434 -60.815303430079155 214.70580474934036 -60.35224274406332Q215.27176781002638 -59.88918205804749 216.5065963060686 -59.7862796833773Q216.91820580474933 -59.27176781002638 216.71240105540898 -59.01451187335092Q216.5065963060686 -58.757255936675456 216.5065963060686 -58.13984168865435Q219.59366754617412 -57.21372031662269 220.4168865435356 -55.20712401055409Q221.24010554089708 -53.20052770448549 220.5197889182058 -51.03957783641161Q219.7994722955145 -48.878627968337724 217.9472295514512 -47.02638522427441Q216.09498680738784 -45.17414248021108 213.93403693931396 -44.55672823218997Q208.9947229551451 -43.21899736147757 204.62137203166225 -41.62401055408971Q200.24802110817942 -40.029023746701846 197.46965699208442 -36.9419525065963Q195.0 -36.22163588390501 193.09630606860156 -35.03825857519789Q191.19261213720316 -33.854881266490764 189.4947229551451 -32.36279683377309Q187.79683377308706 -30.870712401055407 186.30474934036937 -29.275725593667545Q184.8126649076517 -27.680738786279683 183.16622691292875 -26.13720316622691Q183.26912928759893 -24.696569920844325 182.7031662269129 -23.924802110817943Q182.1372031662269 -23.153034300791557 181.62269129287597 -22.329815303430077Q181.82849604221636 -20.78627968337731 182.34300791556728 -19.602902374670187Q182.85751978891818 -18.41952506596306 183.4749340369393 -17.28759894459103Q190.26649076517148 -15.229551451187334 197.93271767810023 -14.71503957783641Q205.598944591029 -14.200527704485488 213.31662269129288 -14.097625329815303Q214.03693931398416 -13.068601583113455 215.0145118733509 -12.193931398416886Q215.99208443271766 -11.319261213720315 216.81530343007915 -10.341688654353561Q217.63852242744062 -9.364116094986807 218.15303430079155 -8.180738786279683Q218.66754617414247 -6.997361477572559 218.3588390501319 -5.248021108179419Q216.91820580474933 -3.704485488126649 215.1688654353562 -2.4182058047493404Q213.41952506596306 -1.1319261213720315 211.6701846965699 0.20580474934036938ZM285.0395778364116 -3.704485488126649Q280.10026385224273 -3.4986807387862795 276.344327176781 -3.9102902374670183Q272.5883905013192 -4.321899736147757 268.98680738786277 -5.8654353562005275Q268.7810026385224 -5.968337730870712 268.57519788918205 -6.379947229551451Q268.3693931398417 -6.791556728232189 268.1635883905013 -6.997361477572559Q267.5461741424802 -7.306068601583113 266.6715039577836 -7.25461741424802Q265.79683377308703 -7.203166226912928 265.17941952506595 -7.408970976253298Q264.35620052770446 -7.820580474934037 262.6068601583113 -9.00395778364116Q260.8575197889182 -10.187335092348285 259.4168865435356 -11.216358839050132Q257.56464379947226 -12.656992084432718 255.9182058047493 -14.097625329815303Q254.27176781002635 -15.538258575197888 253.03693931398413 -17.184696569920842Q252.7282321899736 -17.59630606860158 252.21372031662267 -17.647757255936675Q251.69920844327174 -17.69920844327177 251.287598944591 -17.905013192612135Q248.30343007915565 -16.052770448548813 246.24538258575194 -13.274406332453825Q244.18733509234826 -10.496042216358838 242.33509234828495 -7.614775725593667Q240.4828496042216 -4.733509234828496 238.4248021108179 -2.1609498680738786Q236.36675461741422 0.41160949868073876 233.1767810026385 1.7493403693931397Q232.25065963060683 1.7493403693931397 231.53034300791555 1.4406332453825856Q230.81002638522426 1.1319261213720315 230.19261213720313 0.6688654353562005Q229.57519788918202 0.20580474934036938 228.95778364116092 -0.20580474934036935Q228.3403693931398 -0.6174142480211081 227.62005277044852 -0.8232189973614775Q227.62005277044852 -2.0580474934036936 227.1569920844327 -3.0870712401055407Q226.69393139841685 -4.116094986807387 226.23087071240104 -5.04221635883905Q225.7678100263852 -5.968337730870712 225.56200527704482 -6.8430079155672825Q225.35620052770446 -7.717678100263852 225.97361477572557 -8.54089709762533Q225.35620052770446 -9.158311345646437 224.12137203166225 -9.87862796833773Q224.73878627968335 -10.496042216358838 224.68733509234826 -11.01055408970976Q224.63588390501317 -11.525065963060685 224.4300791556728 -12.03957783641161Q224.22427440633243 -12.554089709762533 224.06992084432716 -13.17150395778364Q223.9155672823219 -13.788918205804748 224.3271767810026 -14.406332453825856Q224.84168865435353 -14.406332453825856 225.56200527704482 -14.612137203166226Q224.9445910290237 -15.435356200527703 224.99604221635883 -15.58970976253298Q225.04749340369392 -15.744063324538258 224.73878627968335 -16.052770448548813Q224.532981530343 -16.67018469656992 224.94459102902374 -16.824538258575195Q225.35620052770446 -16.978891820580476 225.7678100263852 -17.184696569920842Q226.17941952506595 -22.226912928759894 227.51715039577834 -26.54881266490765Q228.85488126649074 -30.870712401055407 230.5013192612137 -34.88390501319261Q232.14775725593665 -38.89709762532981 233.74274406332452 -43.0131926121372Q235.3377308707124 -47.129287598944586 236.36675461741422 -51.86279683377308Q237.49868073878625 -52.994722955145114 238.16754617414244 -54.53825857519789Q238.83641160949867 -56.08179419525066 239.60817941952504 -57.62532981530343Q240.37994722955142 -59.168865435356196 241.35751978891818 -60.66094986807387Q242.33509234828495 -62.15303430079155 244.08443271767808 -63.07915567282321Q245.52506596306065 -62.97625329815303 246.6569920844327 -62.30738786279683Q247.78891820580472 -61.63852242744063 249.43535620052768 -61.741424802110814Q249.74406332453825 -61.22691292875989 250.00131926121372 -60.71240105540896Q250.25857519788917 -60.19788918205804 250.6701846965699 -59.68337730870712L252.21372031662267 -59.992084432717675Q253.3456464379947 -59.06596306068601 254.22031662269126 -57.67678100263852Q255.09498680738784 -56.287598944591025 255.40369393139838 -54.74406332453826Q255.71240105540895 -53.20052770448549 255.3007915567282 -51.81134564643799Q254.88918205804748 -50.4221635883905 253.3456464379947 -49.59894459102902Q253.44854881266488 -49.0844327176781 253.3970976253298 -48.827176781002635Q253.3456464379947 -48.56992084432717 253.2427440633245 -48.3641160949868Q253.13984168865431 -48.15831134564643 253.13984168865431 -47.952506596306065Q253.13984168865431 -47.7467018469657 253.44854881266488 -47.33509234828496Q251.3905013192612 -45.79155672823219 250.36147757255935 -43.0131926121372Q249.3324538258575 -40.23482849604221 249.22955145118732 -38.073878627968334Q250.46437994722953 -39.30870712401055 251.9564643799472 -40.492084432717675Q253.44854881266488 -41.6754617414248 255.04353562005275 -42.80738786279683Q256.6385224274406 -43.93931398416886 258.1306068601583 -44.96833773087071Q259.62269129287597 -45.997361477572554 260.8575197889182 -47.02638522427441Q264.2532981530343 -50.113456464379944 267.3918205804749 -52.01715039577836Q270.5303430079155 -53.92084432717678 274.0290237467018 -56.287598944591025Q274.8522427440633 -56.4934036939314 275.3153034300791 -56.339050131926115Q275.77836411609496 -56.18469656992084 276.29287598944586 -55.97889182058047Q276.29287598944586 -56.59630606860158 275.93271767810023 -56.699208443271765Q275.5725593667546 -56.80211081794195 275.6754617414248 -57.522427440633244Q277.21899736147753 -57.934036939313984 278.35092348284957 -58.5Q279.4828496042216 -59.06596306068601 280.820580474934 -59.580474934036936Q281.74670184696566 -58.65435356200528 282.56992084432716 -57.67678100263852Q283.39313984168865 -56.699208443271765 284.8337730870712 -56.4934036939314Q285.3482849604221 -55.361477572559366 286.06860158311343 -54.79551451187335Q286.78891820580475 -54.229551451187334 287.509234828496 -53.71503957783641Q288.2295514511873 -53.20052770448549 288.7955145118733 -52.480211081794195Q289.36147757255935 -51.7598944591029 289.46437994722953 -50.21635883905013Q289.0527704485488 -49.49604221635884 288.58970976253295 -48.67282321899736Q288.12664907651714 -47.84960422163588 287.71503957783636 -46.717678100263846Q285.6569920844327 -44.86543535620053 283.5474934036939 -43.424802110817936Q281.4379947229551 -41.98416886543535 279.27704485488124 -40.64643799472295Q277.11609498680735 -39.30870712401055 274.8522427440633 -37.97097625329815Q272.5883905013192 -36.63324538258575 270.221635883905 -34.78100263852242Q269.7071240105541 -34.06068601583113 268.9353562005277 -33.494722955145114Q268.1635883905013 -32.9287598944591 267.3403693931398 -32.36279683377308Q266.51715039577834 -31.79683377308707 265.7968337730871 -31.17941952506596Q265.0765171503958 -30.562005277044854 264.664907651715 -29.738786279683374Q264.35620052770446 -29.63588390501319 264.0474934036939 -29.63588390501319Q263.7387862796834 -29.63588390501319 263.4300791556728 -29.532981530343005Q263.12137203166225 -28.812664907651712 262.4525065963061 -28.401055408970976Q261.78364116094986 -27.989445910290236 261.5778364116095 -27.269129287598943Q263.12137203166225 -23.976253298153033 265.59102902374667 -22.226912928759894Q268.0606860158311 -20.477572559366752 271.14775725593665 -19.705804749340366Q274.2348284960422 -18.934036939313984 277.83641160949867 -18.88258575197889Q281.4379947229551 -18.831134564643797 285.3482849604221 -18.831134564643797Q285.7598944591029 -18.934036939313984 285.7084432717678 -19.29419525065963Q285.6569920844327 -19.654353562005277 286.1715039577836 -19.55145118733509Q288.64116094986804 -18.728232189973614 289.97889182058043 -17.236147757255935Q291.3166226912929 -15.744063324538258 293.16886543535617 -14.303430079155673Q292.9630606860158 -10.393139841688654 290.8021108179419 -7.820580474934037Q288.64116094986804 -5.248021108179419 285.0395778364116 -3.704485488126649ZM292.3456464379947 -46.40897097625329Q292.6543535620052 -47.952506596306065 292.7572559366754 -48.93007915567282Q292.86015831134563 -49.90765171503958 292.03693931398413 -51.03957783641161Q292.44854881266485 -52.68601583113456 292.70580474934036 -53.61213720316623Q292.9630606860158 -54.53825857519789 292.75725593667545 -56.18469656992084Q293.68337730870707 -58.86015831134564 295.5870712401055 -60.71240105540897Q297.49076517150394 -62.56464379947229 299.754617414248 -63.8509234828496Q302.01846965699207 -65.13720316622691 304.4881266490765 -66.01187335092348Q306.9577836411609 -66.88654353562005 309.1187335092348 -67.50395778364116Q309.1187335092348 -67.9155672823219 308.707124010554 -67.9155672823219Q308.2955145118733 -67.9155672823219 308.50131926121367 -68.43007915567281Q314.05804749340365 -69.45910290237467 319.6662269129287 -71.41424802110818Q325.2744063324538 -73.36939313984169 331.1398416886543 -74.91292875989446Q337.00527704485484 -76.45646437994722 343.1794195250659 -76.81662269129288Q349.353562005277 -77.17678100263852 356.1451187335092 -75.22163588390501Q356.5567282321899 -73.9868073878628 357.2770448548812 -72.85488126649076Q357.9973614775725 -71.72295514511873 358.7691292875989 -70.64248021108179Q359.5408970976253 -69.56200527704485 360.15831134564644 -68.532981530343Q360.7757255936675 -67.50395778364116 360.8786279683377 -66.37203166226912Q362.1134564643799 -65.24010554089709 362.88522427440626 -63.95382585751979Q363.65699208443266 -62.66754617414248 363.14248021108176 -60.506596306068595Q362.01055408970973 -59.68337730870712 360.7757255936675 -58.86015831134564Q359.5408970976253 -58.03693931398416 358.2031662269129 -57.31662269129287Q353.5725593667546 -58.4485488126649 348.9419525065963 -58.13984168865435Q344.3113456464379 -57.8311345646438 340.6068601583113 -57.41952506596306Q339.47493403693926 -58.65435356200528 337.9313984168865 -58.60290237467018Q336.3878627968337 -58.55145118733509 334.6899736147757 -58.08839050131925Q332.99208443271766 -57.625329815303424 331.3456464379947 -57.162269129287594Q329.69920844327174 -56.699208443271765 328.2585751978891 -56.90501319261213Q327.1266490765171 -55.875989445910285 325.27440633245374 -55.515831134564635Q323.42216358839045 -55.15567282321899 321.36411609498674 -54.949868073878626Q321.26121372031656 -54.4353562005277 321.56992084432716 -54.229551451187334Q321.8786279683377 -54.02374670184696 321.67282321899734 -53.406332453825854Q322.3931398416886 -52.480211081794195 323.6279683377308 -52.12005277044855Q324.862796833773 -51.7598944591029 326.1490765171503 -51.45118733509234Q327.4353562005277 -51.14248021108179 328.46437994722953 -50.57651715039577Q329.4934036939313 -50.01055408970976 329.8021108179419 -48.775725593667545Q331.6543535620052 -48.67282321899736 332.99208443271766 -47.79815303430079Q334.32981530343005 -46.92348284960422 335.2559366754617 -45.688654353562Q336.18205804749334 -44.45382585751979 336.59366754617406 -43.06464379947229Q337.00527704485484 -41.6754617414248 336.90237467018466 -40.543535620052765Q337.3139841688654 -39.51451187335092 337.7770448548812 -39.720316622691286Q338.24010554089705 -39.92612137203166 338.8575197889182 -39.205804749340366Q339.2691292875989 -37.662269129287594 340.7612137203166 -35.964379947229546Q342.2532981530343 -34.266490765171504 343.0765171503957 -32.31134564643799Q343.2823218997361 -29.22427440633245 343.4366754617414 -26.754617414248017Q343.59102902374667 -24.284960422163586 342.5620052770448 -21.918205804749338Q340.81266490765165 -17.39050131926121 337.5197889182058 -13.788918205804748Q334.2269129287599 -10.187335092348285 330.0593667546174 -7.46042216358839Q325.89182058047487 -4.733509234828496 321.26121372031656 -2.7269129287598943Q316.63060686015825 -0.7203166226912928 312.1029023746701 0.6174142480211081Q311.6912928759894 0.5145118733509234 311.1253298153034 0.6174142480211081Q310.5593667546174 0.7203166226912928 310.8680738786279 0.0Q309.9419525065963 0.8232189973614775 308.7585751978892 1.0290237467018468Q307.575197889182 1.2348284960422162 306.1860158311345 1.183377308707124Q304.79683377308703 1.1319261213720315 303.40765171503955 1.0290237467018468Q302.01846965699207 0.9261213720316622 300.6807387862796 1.1319261213720315Q299.8575197889182 0.30870712401055406 299.188654353562 -0.5145118733509234Q298.5197889182058 -1.337730870712401 298.108179419525 -2.4696569920844325Q297.5936675461741 -2.5725593667546174 297.6451187335092 -3.138522427440633Q297.6965699208443 -3.704485488126649 297.18205804749334 -3.704485488126649Q297.18205804749334 -4.116094986807387 297.2849604221635 -4.321899736147756Q297.38786279683376 -4.527704485488126 297.49076517150394 -4.733509234828496Q297.90237467018466 -5.04221635883905 297.85092348284957 -5.196569920844327Q297.7994722955145 -5.350923482849604 297.542216358839 -5.50527704485488Q297.2849604221635 -5.659630606860158 297.0277044854881 -5.865435356200527Q296.7704485488126 -6.071240105540896 296.8733509234828 -6.379947229551451Q297.38786279683376 -7.306068601583113 297.2335092348285 -8.592348284960421Q297.07915567282316 -9.87862796833773 296.976253298153 -11.21635883905013Q296.8733509234828 -12.554089709762533 297.18205804749334 -13.737467018469657Q297.49076517150394 -14.92084432717678 298.9313984168865 -15.744063324538258Q303.1503957783641 -15.332453825857518 306.9063324538258 -16.155672823218996Q310.66226912928755 -16.978891820580476 314.00659630606856 -18.41952506596306Q317.35092348284957 -19.860158311345646 320.38654353562004 -21.55804749340369Q323.42216358839045 -23.25593667546174 326.30343007915565 -24.696569920844325Q326.6121372031662 -25.72559366754617 327.2810026385224 -26.445910290237464Q327.9498680738786 -27.166226912928757 328.6701846965699 -27.83509234828496Q329.39050131926115 -28.50395778364116 330.0079155672823 -29.275725593667545Q330.6253298153034 -30.04749340369393 330.93403693931396 -31.17941952506596Q331.03693931398413 -31.5910290237467 330.93403693931396 -31.79683377308707Q330.8311345646438 -32.00263852242744 330.6253298153034 -32.156992084432716Q330.419525065963 -32.31134564643799 330.21372031662264 -32.51715039577836Q330.0079155672823 -32.72295514511873 330.0079155672823 -33.13456464379947Q329.69920844327174 -33.23746701846966 329.4419525065963 -33.34036939313984Q329.1846965699208 -33.443271767810025 328.97889182058043 -33.443271767810025Q326.30343007915565 -34.78100263852242 323.3192612137203 -35.70712401055408Q320.33509234828495 -36.63324538258575 318.27704485488124 -37.76517150395778Q317.042216358839 -36.9419525065963 315.8073878627968 -37.35356200527704Q314.5725593667546 -37.76517150395778 312.82321899736144 -38.17678100263852Q308.50131926121367 -38.38258575197889 304.64248021108176 -39.0Q300.78364116094986 -39.617414248021106 297.18205804749334 -41.16094986807388Q296.976253298153 -41.778364116094984 296.66754617414244 -42.241424802110814Q296.3588390501319 -42.70448548812664 295.2269129287599 -42.49868073878628Q294.50659630606856 -43.52770448548812 293.73482849604216 -44.40237467018469Q292.9630606860158 -45.27704485488126 292.3456464379947 -46.40897097625329ZM409.1398416886543 -57.934036939313984Q409.2427440633245 -57.21372031662269 409.1912928759894 -56.85356200527704Q409.1398416886543 -56.4934036939314 409.0883905013192 -56.184696569920845Q409.03693931398413 -55.875989445910285 409.03693931398413 -55.515831134564635Q409.03693931398413 -55.15567282321899 409.2427440633245 -54.4353562005277Q407.0817941952506 -50.93667546174142 404.2519788918205 -49.650395778364114Q401.42216358839045 -48.364116094986805 398.12928759894453 -47.79815303430079Q394.83641160949867 -47.23218997361477 391.3891820580475 -46.61477572559366Q387.9419525065963 -45.997361477572554 384.5461741424802 -43.93931398416886Q383.20844327176775 -44.45382585751979 382.12796833773086 -43.93931398416886Q381.0474934036939 -43.424802110817936 378.9894459102902 -43.63060686015831Q378.3720316622691 -43.0131926121372 377.4459102902374 -42.75593667546174Q376.5197889182058 -42.49868073878628 375.5936675461741 -42.189973614775724Q376.00527704485484 -41.26385224274406 375.95382585751975 -40.2862796833773Q375.90237467018466 -39.30870712401055 376.2110817941952 -38.69129287598945Q379.81266490765165 -38.38258575197889 384.1860158311345 -38.79419525065963Q388.5593667546174 -39.205804749340366 392.77836411609496 -39.30870712401055Q392.88126649076514 -38.79419525065963 392.6754617414248 -38.63984168865435Q392.4696569920844 -38.485488126649074 392.5725593667546 -38.073878627968334Q393.29287598944586 -37.559366754617415 394.0131926121372 -36.787598944591025Q394.7335092348285 -36.01583113456464 395.45382585751975 -35.29551451187335Q396.17414248021106 -34.57519788918206 396.9459102902374 -34.11213720316623Q397.7176781002638 -33.64907651715039 398.74670184696566 -33.75197889182058Q399.1583113456464 -32.9287598944591 399.31266490765165 -31.951187335092346Q399.467018469657 -30.973614775725594 399.0554089709762 -29.944591029023744Q397.4089709762533 -28.812664907651712 395.7625329815303 -27.629287598944586Q394.11609498680735 -26.445910290237464 392.3153034300791 -25.519788918205805Q390.5145118733509 -24.593667546174142 388.5079155672823 -24.027704485488126Q386.50131926121367 -23.46174142480211 384.03166226912924 -23.564643799472293Q383.51715039577834 -23.564643799472293 383.25989445910284 -23.564643799472293Q383.0026385224274 -23.564643799472293 382.59102902374667 -23.87335092348285Q381.7678100263852 -23.358839050131923 380.2757255936675 -23.564643799472293Q378.78364116094986 -23.770448548812663 377.96042216358836 -23.25593667546174Q376.82849604221633 -23.770448548812663 375.2335092348285 -23.71899736147757Q373.6385224274406 -23.66754617414248 372.4036939313984 -24.079155672823216Q370.75725593667545 -21.918205804749338 369.41952506596306 -19.448548812664907Q368.0817941952506 -16.978891820580476 367.05277044854876 -14.200527704485488Q370.55145118733503 -13.686015831134563 372.8667546174142 -13.788918205804748Q375.18205804749334 -13.891820580474933 377.24010554089705 -14.149076517150394Q379.29815303430075 -14.406332453825856 381.45910290237464 -14.663588390501317Q383.6200527704485 -14.92084432717678 386.91292875989444 -14.817941952506596Q388.9709762532981 -15.949868073878626 391.8007915567282 -16.310026385224273Q394.63060686015825 -16.67018469656992 396.9973614775725 -17.4934036939314Q397.820580474934 -17.184696569920842 398.43799472295507 -16.412928759894456Q399.0554089709762 -15.641160949868073 399.6213720316622 -14.972295514511874Q400.18733509234823 -14.303430079155673 400.8047493403693 -13.788918205804748Q401.42216358839045 -13.274406332453825 402.3482849604221 -13.37730870712401Q402.75989445910284 -12.96569920844327 402.91424802110816 -12.399736147757256Q403.06860158311343 -11.83377308707124 403.1715039577836 -11.319261213720317Q403.2744063324538 -10.804749340369392 403.53166226912924 -10.444591029023746Q403.7889182058047 -10.0844327176781 404.4063324538258 -10.187335092348285Q402.862796833773 -6.791556728232189 400.85620052770446 -4.990765171503957Q398.84960422163584 -3.1899736147757256 396.2770448548812 -2.263852242744063Q393.7044854881266 -1.337730870712401 390.56596306068593 -0.8232189973614775Q387.42744063324534 -0.30870712401055406 383.6200527704485 0.41160949868073876Q382.69393139841685 0.6174142480211081 382.0765171503957 0.3601583113456464Q381.45910290237464 0.10290237467018469 380.63588390501315 0.10290237467018469Q378.2691292875989 0.6174142480211081 374.976253298153 1.0290237467018468Q371.68337730870707 1.4406332453825856 368.28759894459097 1.337730870712401Q364.89182058047487 1.2348284960422162 361.8047493403693 0.46306068601583106Q358.7176781002638 -0.30870712401055406 356.7625329815303 -2.263852242744063Q355.93931398416885 -2.984168865435356 355.68205804749334 -3.961741424802111Q355.4248021108179 -4.939313984168865 354.29287598944586 -5.453825857519789Q354.1899736147757 -6.791556728232189 353.88126649076514 -8.437994722955144Q353.5725593667546 -10.0844327176781 353.26385224274406 -11.885224274406331Q352.95514511873347 -13.686015831134563 352.8007915567282 -15.435356200527703Q352.64643799472293 -17.184696569920842 352.95514511873347 -18.625329815303427Q353.263852242744 -20.1688654353562 354.24142480211077 -21.403693931398415Q355.21899736147753 -22.63852242744063 354.910290237467 -24.079155672823216Q355.4248021108179 -24.182058047493403 355.5277044854881 -24.645118733509236Q355.63060686015825 -25.108179419525065 356.35092348284957 -25.00527704485488Q356.9683377308707 -26.857519788918204 357.688654353562 -28.50395778364116Q358.4089709762533 -30.150395778364114 359.1807387862797 -31.693931398416886Q359.952506596306 -33.23746701846966 360.72427440633237 -34.83245382585752Q361.4960422163588 -36.42744063324538 362.2163588390501 -38.38258575197889Q360.7757255936675 -39.72031662269129 360.1068601583113 -41.315303430079155Q359.4379947229551 -42.91029023746702 359.12928759894453 -44.50527704485488Q358.820580474934 -46.10026385224274 358.61477572559363 -47.79815303430079Q358.4089709762533 -49.49604221635884 357.8944591029023 -51.245382585751976Q358.92348284960417 -52.78891820580475 360.41556728232183 -53.7664907651715Q361.90765171503955 -54.74406332453825 363.65699208443266 -55.361477572559366Q365.4063324538258 -55.97889182058047 367.46437994722953 -56.39050131926121Q369.52242744063324 -56.80211081794195 371.7862796833773 -57.31662269129287Q375.90237467018466 -58.65435356200528 379.1437994722955 -59.37467018469657Q382.3852242744063 -60.09498680738786 385.5237467018469 -60.55804749340369Q388.66226912928755 -61.02110817941952 392.05804749340365 -61.43271767810026Q395.45382585751975 -61.844327176781 399.7757255936675 -62.66754617414248Q400.7018469656992 -61.741424802110814 401.5250659630606 -61.741424802110814Q401.9366754617414 -62.66754617414248 402.50263852242745 -62.30738786279683Q403.06860158311343 -61.94722955145119 402.96569920844325 -62.873350923482846Q403.9947229551451 -61.12401055408971 405.58970976253295 -59.940633245382585Q407.1846965699208 -58.757255936675456 409.1398416886543 -57.934036939313984ZM423.2374670184696 -10.701846965699207Q422.10554089709757 -6.58575197889182 421.23087071240104 -4.4762532981530345Q420.35620052770446 -2.366754617414248 418.6068601583113 -0.10290237467018469Q417.2691292875989 -0.30870712401055406 416.75461741424795 0.20580474934036938Q416.24010554089705 0.7203166226912928 415.62269129287597 1.1319261213720315Q414.6965699208443 1.337730870712401 414.2849604221635 1.1319261213720315Q413.8733509234828 0.9261213720316622 413.56464379947226 0.6688654353562005Q413.2559366754617 0.41160949868073876 412.79287598944586 0.15435356200527703Q412.32981530343005 -0.10290237467018469 411.4036939313984 -0.10290237467018469Q411.197889182058 -0.9261213720316622 410.94063324538257 -1.646437994722955Q410.6833773087071 -2.366754617414248 409.5514511873351 -2.1609498680738786Q409.75725593667545 -2.984168865435356 409.65435356200527 -3.550131926121372Q409.5514511873351 -4.116094986807387 409.3970976253298 -4.579155672823219Q409.2427440633245 -5.04221635883905 409.1398416886543 -5.505277044854881Q409.03693931398413 -5.968337730870712 409.2427440633245 -6.688654353562005Q408.7282321899736 -6.688654353562005 408.41952506596306 -7.408970976253299Q408.11081794195246 -8.129287598944591 407.69920844327174 -8.849604221635884Q408.0079155672823 -10.701846965699207 408.3166226912929 -12.348284960422163Q408.6253298153034 -13.994722955145118 409.0883905013193 -15.435356200527703Q409.5514511873351 -16.87598944591029 409.86015831134563 -18.316622691292874Q410.16886543535617 -19.75725593667546 409.5514511873351 -21.30079155672823Q409.9630606860158 -20.992084432717675 410.16886543535617 -21.455145118733505Q410.3746701846965 -21.918205804749338 410.4775725593667 -22.689973614775724Q410.5804749340369 -23.46174142480211 410.5804749340369 -24.233509234828496Q410.5804749340369 -25.00527704485488 410.4775725593667 -25.519788918205805Q411.50659630606856 -28.195250659630606 412.1754617414248 -31.025065963060683Q412.84432717678095 -33.854881266490764 413.41029023746694 -36.633245382585756Q413.976253298153 -39.41160949868074 414.59366754617406 -42.087071240105544Q415.2110817941952 -44.76253298153034 416.24010554089705 -47.02638522427441Q417.3720316622691 -47.23218997361477 418.7612137203166 -46.76912928759894Q420.1503957783641 -46.306068601583114 420.45910290237464 -45.58575197889182Q423.1345646437994 -47.64379947229551 425.1926121372031 -50.57651715039577Q427.25065963060683 -53.50923482849604 429.4116094986807 -56.287598944591025Q431.5725593667546 -59.06596306068601 434.1965699208443 -61.22691292875989Q436.820580474934 -63.38786279683377 440.8337730870712 -63.799472295514505Q442.8918205804749 -62.25593667546174 445.41292875989444 -60.66094986807387Q447.93403693931396 -59.06596306068601 449.5804749340369 -56.4934036939314Q450.4036939313984 -56.08179419525066 450.9696569920844 -55.61873350923483Q451.5356200527704 -55.15567282321899 452.3588390501319 -54.64116094986807V-53.406332453825854Q453.5936675461741 -52.27440633245382 454.36543535620046 -50.78232189973615Q455.13720316622687 -49.290237467018464 455.75461741424795 -47.59234828496042Q456.3720316622691 -45.894459102902374 456.9894459102902 -44.196569920844325Q457.6068601583113 -42.49868073878628 458.4300791556728 -40.955145118733505Q458.2242744063324 -40.440633245382585 458.2242744063324 -40.08047493403694Q458.2242744063324 -39.72031662269129 458.3786279683377 -39.30870712401055Q458.53298153034297 -38.89709762532981 458.63588390501315 -38.485488126649074Q458.7387862796833 -38.073878627968334 458.63588390501315 -37.35356200527704Q458.3271767810026 -32.82585751978892 455.7031662269129 -30.04749340369393Q453.07915567282316 -27.269129287598943 449.3746701846965 -25.46833773087071Q445.6701846965699 -23.66754617414248 441.4511873350923 -22.43271767810026Q437.23218997361477 -21.197889182058045 433.83641160949867 -19.75725593667546Q433.83641160949867 -19.345646437994723 434.1965699208443 -19.345646437994723Q434.5567282321899 -19.345646437994723 434.45382585751975 -18.831134564643797Q436.92348284960417 -17.28759894459103 438.3641160949868 -16.361477572559366Q439.80474934036937 -15.435356200527703 441.09102902374667 -14.817941952506596Q442.377308707124 -14.200527704485488 443.8693931398417 -13.737467018469657Q445.36147757255935 -13.274406332453825 448.03693931398413 -12.656992084432718Q450.7124010554089 -12.039577836411608 452.2044854881266 -11.679419525065962Q453.6965699208443 -11.319261213720315 454.9313984168865 -11.062005277044854Q456.1662269129287 -10.804749340369392 457.452506596306 -10.650395778364114Q458.7387862796833 -10.496042216358838 461.10554089709757 -10.29023746701847Q462.03166226912924 -9.364116094986807 462.70052770448547 -8.077836411609498Q463.36939313984163 -6.791556728232189 463.57519788918205 -5.50527704485488Q463.7810026385224 -4.218997361477572 463.67810026385223 -3.035620052770448Q463.57519788918205 -1.8522427440633245 462.9577836411609 -1.1319261213720315Q463.0606860158311 -0.8232189973614775 463.4208443271767 -0.8746701846965699Q463.7810026385224 -0.9261213720316622 464.1926121372031 -0.8232189973614775Q463.57519788918205 -0.41160949868073876 463.16358839050133 0.20580474934036938Q462.75197889182056 0.8232189973614775 462.3403693931398 1.4406332453825856Q461.92875989445906 2.0580474934036936 461.41424802110816 2.521108179419525Q460.8997361477572 2.984168865435356 459.97361477572554 3.0870712401055407Q456.78364116094986 4.321899736147757 451.9472295514512 3.241424802110818Q447.11081794195246 2.1609498680738786 439.7018469656992 -0.7203166226912928Q435.99736147757255 -2.1609498680738786 433.6820580474934 -3.241424802110818Q431.36675461741424 -4.321899736147757 429.6688654353562 -5.402374670184696Q427.97097625329815 -6.482849604221635 426.5817941952506 -7.717678100263852Q425.1926121372031 -8.952506596306067 423.2374670184696 -10.701846965699207ZM437.952506596306 -45.997361477572554Q436.820580474934 -44.3509234828496 435.4313984168865 -43.0131926121372Q434.042216358839 -41.6754617414248 432.7559366754617 -40.2862796833773Q431.4696569920844 -38.89709762532981 430.44063324538257 -37.199208443271765Q429.4116094986807 -35.501319261213716 428.99999999999994 -33.23746701846966Q432.60158311345646 -33.64907651715039 436.51187335092345 -35.24406332453826Q440.42216358839045 -36.83905013192612 443.9208443271767 -38.27968337730871Q443.509234828496 -41.46965699208443 441.7084432717678 -43.424802110817936Q439.90765171503955 -45.37994722955145 437.952506596306 -45.997361477572554ZM497.94459102902374 -18.110817941952504Q497.84168865435356 -16.67018469656992 497.2757255936675 -15.38390501319261Q496.70976253298153 -14.097625329815303 495.88654353562004 -12.914248021108179Q495.06332453825854 -11.730870712401055 494.08575197889184 -10.650395778364116Q493.1081794195251 -9.569920844327177 492.1820580474934 -8.7467018469657Q492.49076517150394 -7.408970976253298 492.2335092348285 -6.740105540897098Q491.97625329815304 -6.071240105540896 492.0791556728232 -4.733509234828496Q490.5356200527704 -0.6174142480211081 487.3970976253298 0.7717678100263852Q484.2585751978892 2.1609498680738786 481.4802110817942 0.20580474934036938Q480.3482849604221 -0.6174142480211081 479.5765171503957 -1.903693931398417Q478.80474934036937 -3.1899736147757256 477.467018469657 -3.4986807387862795Q477.7757255936675 -5.248021108179419 477.15831134564644 -6.997361477572559Q476.5408970976253 -8.7467018469657 475.82058047493405 -8.849604221635884Q475.51187335092345 -11.010554089709762 474.8944591029024 -13.480211081794195Q474.27704485488124 -15.949868073878626 473.7625329815303 -18.47097625329815Q473.2480211081794 -20.992084432717675 472.88786279683376 -23.410290237467017Q472.52770448548813 -25.828496042216358 472.6306068601583 -27.886543535620053Q472.7335092348285 -28.9155672823219 472.2704485488126 -29.738786279683374Q471.8073878627968 -30.562005277044854 471.60158311345646 -31.693931398416886Q471.18997361477574 -34.06068601583113 471.344327176781 -36.684696569920845Q471.4986807387863 -39.30870712401055 471.4986807387863 -41.6754617414248Q471.4986807387863 -43.93931398416886 471.2414248021108 -46.56332453825857Q470.9841688654353 -49.187335092348285 470.77836411609496 -51.605540897097626Q470.5725593667546 -54.02374670184696 470.5725593667546 -56.03034300791556Q470.5725593667546 -58.03693931398416 471.0870712401055 -59.168865435356196Q471.70448548812664 -60.403693931398415 472.7849604221636 -61.1754617414248Q473.8654353562005 -61.94722955145119 474.7915567282322 -62.873350923482846Q477.05540897097626 -62.66754617414248 478.39313984168865 -61.02110817941953Q479.73087071240104 -59.37467018469657 479.4221635883905 -57.934036939313984Q481.5831134564644 -56.59630606860158 482.8693931398417 -54.4868073878628Q484.155672823219 -52.37730870712401 484.9274406332454 -49.753298153034294Q485.69920844327174 -47.129287598944586 486.00791556728234 -44.196569920844325Q486.3166226912929 -41.26385224274406 486.52242744063324 -38.434036939313984Q486.7282321899736 -35.6042216358839 486.93403693931396 -33.031662269129285Q487.1398416886543 -30.459102902374667 487.75725593667545 -28.606860158311346Q491.56464379947226 -34.06068601583113 494.13720316622687 -38.3311345646438Q496.70976253298153 -42.60158311345646 499.3852242744063 -46.51187335092348Q502.0606860158311 -50.4221635883905 505.353562005277 -54.4353562005277Q508.64643799472293 -58.4485488126649 513.8944591029024 -63.49076517150395Q514.9234828496042 -63.38786279683377 515.5923482849604 -63.07915567282322Q516.2612137203166 -62.77044854881266 516.7757255936675 -62.56464379947229Q517.2902374670184 -62.35883905013192 518.0105540897098 -62.20448548812664Q518.730870712401 -62.05013192612137 519.9656992084433 -62.25593667546174Q520.377308707124 -61.22691292875989 520.5831134564644 -60.76385224274406Q520.7889182058047 -60.30079155672823 520.9432717678101 -59.8377308707124Q521.0976253298153 -59.37467018469657 521.3548812664908 -58.65435356200528Q521.6121372031662 -57.934036939313984 522.2295514511873 -56.59630606860158Q522.5382585751979 -56.287598944591025 522.4353562005277 -55.7730870712401Q522.3324538258576 -55.25857519788918 522.2810026385224 -54.79551451187335Q522.2295514511873 -54.33245382585751 522.2295514511873 -54.12664907651715Q522.2295514511873 -53.92084432717678 522.7440633245383 -54.12664907651715Q522.4353562005277 -52.68601583113456 521.6635883905013 -51.50263852242744Q520.8918205804749 -50.31926121372032 520.9947229551451 -48.67282321899736Q518.6279683377309 -45.58575197889182 515.7981530343008 -42.29287598944591Q512.9683377308706 -39.0 510.1385224274406 -35.50131926121372Q507.30870712401054 -32.00263852242744 504.73614775725594 -28.143799472295512Q502.16358839050133 -24.284960422163586 500.311345646438 -20.065963060686016Q499.7968337730871 -20.065963060686016 499.5395778364116 -19.757255936675463Q499.28232189973613 -19.448548812664907 499.0765171503958 -19.08839050131926Q498.8707124010554 -18.728232189973614 498.61345646437996 -18.419525065963057Q498.35620052770446 -18.110817941952504 497.94459102902374 -18.110817941952504ZM572.240105540897 -57.934036939313984Q572.3430079155672 -57.21372031662269 572.2915567282321 -56.85356200527704Q572.240105540897 -56.4934036939314 572.188654353562 -56.184696569920845Q572.1372031662269 -55.875989445910285 572.1372031662269 -55.515831134564635Q572.1372031662269 -55.15567282321899 572.3430079155672 -54.4353562005277Q570.1820580474933 -50.93667546174142 567.3522427440632 -49.650395778364114Q564.5224274406332 -48.364116094986805 561.2295514511873 -47.79815303430079Q557.9366754617414 -47.23218997361477 554.4894459102902 -46.61477572559366Q551.042216358839 -45.997361477572554 547.6464379947229 -43.93931398416886Q546.3087071240105 -44.45382585751979 545.2282321899736 -43.93931398416886Q544.1477572559367 -43.424802110817936 542.089709762533 -43.63060686015831Q541.4722955145119 -43.0131926121372 540.5461741424801 -42.75593667546174Q539.6200527704485 -42.49868073878628 538.6939313984168 -42.189973614775724Q539.1055408970976 -41.26385224274406 539.0540897097626 -40.2862796833773Q539.0026385224274 -39.30870712401055 539.311345646438 -38.69129287598945Q542.9129287598944 -38.38258575197889 547.2862796833772 -38.79419525065963Q551.6596306068601 -39.205804749340366 555.8786279683377 -39.30870712401055Q555.9815303430079 -38.79419525065963 555.7757255936675 -38.63984168865435Q555.5699208443272 -38.485488126649074 555.6728232189973 -38.073878627968334Q556.3931398416886 -37.559366754617415 557.1134564643799 -36.787598944591025Q557.8337730870712 -36.01583113456464 558.5540897097625 -35.29551451187335Q559.2744063324537 -34.57519788918206 560.0461741424801 -34.11213720316623Q560.8179419525065 -33.64907651715039 561.8469656992083 -33.75197889182058Q562.2585751978892 -32.9287598944591 562.4129287598944 -31.951187335092346Q562.5672823218997 -30.973614775725594 562.155672823219 -29.944591029023744Q560.509234828496 -28.812664907651712 558.862796833773 -27.629287598944586Q557.21635883905 -26.445910290237464 555.4155672823218 -25.519788918205805Q553.6147757255936 -24.593667546174142 551.608179419525 -24.027704485488126Q549.6015831134564 -23.46174142480211 547.131926121372 -23.564643799472293Q546.6174142480211 -23.564643799472293 546.3601583113457 -23.564643799472293Q546.1029023746702 -23.564643799472293 545.6912928759893 -23.87335092348285Q544.8680738786279 -23.358839050131923 543.3759894459102 -23.564643799472293Q541.8839050131926 -23.770448548812663 541.060686015831 -23.25593667546174Q539.9287598944591 -23.770448548812663 538.3337730870712 -23.71899736147757Q536.7387862796834 -23.66754617414248 535.5039577836411 -24.079155672823216Q533.8575197889181 -21.918205804749338 532.5197889182057 -19.448548812664907Q531.1820580474933 -16.978891820580476 530.1530343007915 -14.200527704485488Q533.6517150395778 -13.686015831134563 535.967018469657 -13.788918205804748Q538.2823218997361 -13.891820580474933 540.3403693931398 -14.149076517150394Q542.3984168865435 -14.406332453825856 544.5593667546174 -14.663588390501317Q546.7203166226913 -14.92084432717678 550.0131926121371 -14.817941952506596Q552.0712401055408 -15.949868073878626 554.9010554089709 -16.310026385224273Q557.730870712401 -16.67018469656992 560.0976253298153 -17.4934036939314Q560.9208443271767 -17.184696569920842 561.5382585751979 -16.412928759894456Q562.155672823219 -15.641160949868073 562.721635883905 -14.972295514511874Q563.287598944591 -14.303430079155673 563.9050131926122 -13.788918205804748Q564.5224274406332 -13.274406332453825 565.4485488126649 -13.37730870712401Q565.8601583113456 -12.96569920844327 566.0145118733508 -12.399736147757256Q566.1688654353561 -11.83377308707124 566.2717678100263 -11.319261213720317Q566.3746701846965 -10.804749340369392 566.631926121372 -10.444591029023746Q566.8891820580475 -10.0844327176781 567.5065963060686 -10.187335092348285Q565.9630606860158 -6.791556728232189 563.9564643799472 -4.990765171503957Q561.9498680738786 -3.1899736147757256 559.377308707124 -2.263852242744063Q556.8047493403693 -1.337730870712401 553.6662269129288 -0.8232189973614775Q550.5277044854881 -0.30870712401055406 546.7203166226913 0.41160949868073876Q545.7941952506596 0.6174142480211081 545.1767810026386 0.3601583113456464Q544.5593667546174 0.10290237467018469 543.7361477572559 0.10290237467018469Q541.3693931398417 0.6174142480211081 538.0765171503958 1.0290237467018468Q534.7836411609499 1.4406332453825856 531.3878627968338 1.337730870712401Q527.9920844327177 1.2348284960422162 524.9050131926122 0.46306068601583106Q521.8179419525065 -0.30870712401055406 519.862796833773 -2.263852242744063Q519.0395778364116 -2.984168865435356 518.7823218997362 -3.961741424802111Q518.5250659630607 -4.939313984168865 517.3931398416886 -5.453825857519789Q517.2902374670184 -6.791556728232189 516.9815303430079 -8.437994722955144Q516.6728232189973 -10.0844327176781 516.3641160949868 -11.885224274406331Q516.0554089709763 -13.686015831134563 515.9010554089709 -15.435356200527703Q515.7467018469656 -17.184696569920842 516.0554089709763 -18.625329815303427Q516.3641160949868 -20.1688654353562 517.3416886543536 -21.403693931398415Q518.3192612137203 -22.63852242744063 518.0105540897097 -24.079155672823216Q518.5250659630607 -24.182058047493403 518.6279683377309 -24.645118733509236Q518.730870712401 -25.108179419525065 519.4511873350923 -25.00527704485488Q520.0686015831134 -26.857519788918204 520.7889182058047 -28.50395778364116Q521.509234828496 -30.150395778364114 522.2810026385224 -31.693931398416886Q523.0527704485488 -33.23746701846966 523.8245382585751 -34.83245382585752Q524.5963060686015 -36.42744063324538 525.3166226912929 -38.38258575197889Q523.8759894459102 -39.72031662269129 523.207124010554 -41.315303430079155Q522.5382585751978 -42.91029023746702 522.2295514511873 -44.50527704485488Q521.9208443271767 -46.10026385224274 521.7150395778364 -47.79815303430079Q521.509234828496 -49.49604221635884 520.9947229551451 -51.245382585751976Q522.0237467018469 -52.78891820580475 523.5158311345646 -53.7664907651715Q525.0079155672822 -54.74406332453825 526.7572559366754 -55.361477572559366Q528.5065963060686 -55.97889182058047 530.5646437994723 -56.39050131926121Q532.622691292876 -56.80211081794195 534.88654353562 -57.31662269129287Q539.0026385224274 -58.65435356200528 542.2440633245383 -59.37467018469657Q545.485488126649 -60.09498680738786 548.6240105540896 -60.55804749340369Q551.7625329815303 -61.02110817941952 555.1583113456463 -61.43271767810026Q558.5540897097625 -61.844327176781 562.8759894459102 -62.66754617414248Q563.8021108179419 -61.741424802110814 564.6253298153034 -61.741424802110814Q565.0369393139841 -62.66754617414248 565.6029023746701 -62.30738786279683Q566.1688654353561 -61.94722955145119 566.0659630606859 -62.873350923482846Q567.0949868073878 -61.12401055408971 568.6899736147757 -59.940633245382585Q570.2849604221635 -58.757255936675456 572.240105540897 -57.934036939313984ZM586.3377308707123 -10.701846965699207Q585.2058047493404 -6.58575197889182 584.3311345646438 -4.4762532981530345Q583.4564643799472 -2.366754617414248 581.707124010554 -0.10290237467018469Q580.3693931398417 -0.30870712401055406 579.8548812664908 0.20580474934036938Q579.3403693931398 0.7203166226912928 578.7229551451187 1.1319261213720315Q577.796833773087 1.337730870712401 577.3852242744063 1.1319261213720315Q576.9736147757255 0.9261213720316622 576.664907651715 0.6688654353562005Q576.3562005277045 0.41160949868073876 575.8931398416886 0.15435356200527703Q575.4300791556727 -0.10290237467018469 574.5039577836411 -0.10290237467018469Q574.2981530343008 -0.9261213720316622 574.0408970976252 -1.646437994722955Q573.7836411609499 -2.366754617414248 572.6517150395778 -2.1609498680738786Q572.8575197889181 -2.984168865435356 572.754617414248 -3.550131926121372Q572.6517150395778 -4.116094986807387 572.4973614775724 -4.579155672823219Q572.3430079155672 -5.04221635883905 572.240105540897 -5.505277044854881Q572.1372031662269 -5.968337730870712 572.3430079155672 -6.688654353562005Q571.8284960422163 -6.688654353562005 571.5197889182058 -7.408970976253299Q571.2110817941953 -8.129287598944591 570.7994722955144 -8.849604221635884Q571.1081794195251 -10.701846965699207 571.4168865435356 -12.348284960422163Q571.7255936675461 -13.994722955145118 572.188654353562 -15.435356200527703Q572.6517150395778 -16.87598944591029 572.9604221635884 -18.316622691292874Q573.269129287599 -19.75725593667546 572.6517150395778 -21.30079155672823Q573.0633245382585 -20.992084432717675 573.2691292875988 -21.455145118733505Q573.4749340369393 -21.918205804749338 573.5778364116095 -22.689973614775724Q573.6807387862797 -23.46174142480211 573.6807387862797 -24.233509234828496Q573.6807387862797 -25.00527704485488 573.5778364116095 -25.519788918205805Q574.6068601583113 -28.195250659630606 575.2757255936675 -31.025065963060683Q575.9445910290237 -33.854881266490764 576.5105540897098 -36.633245382585756Q577.0765171503957 -39.41160949868074 577.6939313984169 -42.087071240105544Q578.311345646438 -44.76253298153034 579.3403693931398 -47.02638522427441Q580.4722955145119 -47.23218997361477 581.8614775725594 -46.76912928759894Q583.2506596306068 -46.306068601583114 583.5593667546174 -45.58575197889182Q586.2348284960422 -47.64379947229551 588.2928759894459 -50.57651715039577Q590.3509234828496 -53.50923482849604 592.5118733509235 -56.287598944591025Q594.6728232189973 -59.06596306068601 597.296833773087 -61.22691292875989Q599.9208443271767 -63.38786279683377 603.934036939314 -63.799472295514505Q605.9920844327177 -62.25593667546174 608.5131926121371 -60.66094986807387Q611.0343007915567 -59.06596306068601 612.6807387862797 -56.4934036939314Q613.5039577836411 -56.08179419525066 614.0699208443272 -55.61873350923483Q614.6358839050132 -55.15567282321899 615.4591029023746 -54.64116094986807V-53.406332453825854Q616.6939313984168 -52.27440633245382 617.4656992084432 -50.78232189973615Q618.2374670184696 -49.290237467018464 618.8548812664908 -47.59234828496042Q619.4722955145119 -45.894459102902374 620.089709762533 -44.196569920844325Q620.707124010554 -42.49868073878628 621.5303430079156 -40.955145118733505Q621.3245382585751 -40.440633245382585 621.3245382585751 -40.08047493403694Q621.3245382585751 -39.72031662269129 621.4788918205804 -39.30870712401055Q621.6332453825858 -38.89709762532981 621.7361477572559 -38.485488126649074Q621.8390501319261 -38.073878627968334 621.7361477572559 -37.35356200527704Q621.4274406332454 -32.82585751978892 618.8034300791556 -30.04749340369393Q616.1794195250659 -27.269129287598943 612.4749340369392 -25.46833773087071Q608.7704485488126 -23.66754617414248 604.551451187335 -22.43271767810026Q600.3324538258574 -21.197889182058045 596.9366754617414 -19.75725593667546Q596.9366754617414 -19.345646437994723 597.296833773087 -19.345646437994723Q597.6569920844327 -19.345646437994723 597.5540897097625 -18.831134564643797Q600.0237467018469 -17.28759894459103 601.4643799472294 -16.361477572559366Q602.905013192612 -15.435356200527703 604.1912928759893 -14.817941952506596Q605.4775725593668 -14.200527704485488 606.9696569920844 -13.737467018469657Q608.4617414248021 -13.274406332453825 611.1372031662269 -12.656992084432718Q613.8126649076517 -12.039577836411608 615.3047493403693 -11.679419525065962Q616.796833773087 -11.319261213720315 618.0316622691292 -11.062005277044854Q619.2664907651715 -10.804749340369392 620.5527704485488 -10.650395778364114Q621.8390501319261 -10.496042216358838 624.2058047493404 -10.29023746701847Q625.131926121372 -9.364116094986807 625.8007915567282 -8.077836411609498Q626.4696569920844 -6.791556728232189 626.6754617414248 -5.50527704485488Q626.8812664907651 -4.218997361477572 626.778364116095 -3.035620052770448Q626.6754617414248 -1.8522427440633245 626.0580474934036 -1.1319261213720315Q626.1609498680739 -0.8232189973614775 626.5211081794196 -0.8746701846965699Q626.8812664907651 -0.9261213720316622 627.2928759894459 -0.8232189973614775Q626.6754617414248 -0.41160949868073876 626.263852242744 0.20580474934036938Q625.8522427440632 0.8232189973614775 625.4406332453825 1.4406332453825856Q625.0290237467018 2.0580474934036936 624.5145118733509 2.521108179419525Q624.0 2.984168865435356 623.0738786279683 3.0870712401055407Q619.8839050131926 4.321899736147757 615.0474934036939 3.241424802110818Q610.2110817941953 2.1609498680738786 602.8021108179419 -0.7203166226912928Q599.0976253298153 -2.1609498680738786 596.7823218997362 -3.241424802110818Q594.467018469657 -4.321899736147757 592.7691292875988 -5.402374670184696Q591.0712401055408 -6.482849604221635 589.6820580474933 -7.717678100263852Q588.2928759894459 -8.952506596306067 586.3377308707123 -10.701846965699207ZM601.0527704485488 -45.997361477572554Q599.9208443271767 -44.3509234828496 598.5316622691292 -43.0131926121372Q597.1424802110818 -41.6754617414248 595.8562005277045 -40.2862796833773Q594.5699208443272 -38.89709762532981 593.5408970976252 -37.199208443271765Q592.5118733509235 -35.501319261213716 592.1002638522427 -33.23746701846966Q595.7018469656991 -33.64907651715039 599.6121372031662 -35.24406332453826Q603.5224274406332 -36.83905013192612 607.0211081794195 -38.27968337730871Q606.6094986807387 -41.46965699208443 604.8087071240104 -43.424802110817936Q603.0079155672822 -45.37994722955145 601.0527704485488 -45.997361477572554Z" fill="#333333"/></g>
</svg>
